HIERARCHY
ROOT Hips
{
	OFFSET 193.614899 90.217430 358.243408
	CHANNELS 6 Xposition Yposition Zposition Zrotation Yrotation Xrotation 
	JOINT LeftUpLeg
	{
		OFFSET 0.103457 1.857820 10.548506
		CHANNELS 3 Zrotation Yrotation Xrotation
		JOINT LeftLeg
		{
			OFFSET 43.500000 -0.000019 0.000002
			CHANNELS 3 Zrotation Yrotation Xrotation
			JOINT LeftFoot
			{
				OFFSET 42.372200 -0.000004 0.000003
				CHANNELS 3 Zrotation Yrotation Xrotation
				JOINT LeftToe
				{
					OFFSET 17.300009 0.000002 0.000006
					CHANNELS 3 Zrotation Yrotation Xrotation
					End Site
					{
						OFFSET 0.000000 0.000000 0.000000
					}
				}
			}
		}
	}
	JOINT RightUpLeg
	{
		OFFSET 0.103459 1.857818 -10.548504
		CHANNELS 3 Zrotation Yrotation Xrotation
		JOINT RightLeg
		{
			OFFSET 43.500042 -0.000015 0.000010
			CHANNELS 3 Zrotation Yrotation Xrotation
			JOINT RightFoot
			{
				OFFSET 42.372261 -0.000008 0.000010
				CHANNELS 3 Zrotation Yrotation Xrotation
				JOINT RightToe
				{
					OFFSET 17.299995 -0.000005 0.000000
					CHANNELS 3 Zrotation Yrotation Xrotation
					End Site
					{
						OFFSET 0.000000 0.000000 0.000000
					}
				}
			}
		}
	}
	JOINT Spine
	{
		OFFSET 6.901967 -2.603743 0.000001
		CHANNELS 3 Zrotation Yrotation Xrotation
		JOINT Spine1
		{
			OFFSET 12.588100 0.000016 -0.000005
			CHANNELS 3 Zrotation Yrotation Xrotation
			JOINT Spine2
			{
				OFFSET 12.343201 -0.000011 -0.000005
				CHANNELS 3 Zrotation Yrotation Xrotation
				JOINT Neck
				{
					OFFSET 25.832895 0.000008 0.000006
					CHANNELS 3 Zrotation Yrotation Xrotation
					JOINT Head
					{
						OFFSET 11.766613 -0.000004 -0.000002
						CHANNELS 3 Zrotation Yrotation Xrotation
						End Site
						{
							OFFSET 0.000000 0.000000 0.000000
						}
					}
				}
				JOINT LeftShoulder
				{
					OFFSET 19.745897 -1.480371 6.000116
					CHANNELS 3 Zrotation Yrotation Xrotation
					JOINT LeftArm
					{
						OFFSET 11.284124 -0.000012 -0.000008
						CHANNELS 3 Zrotation Yrotation Xrotation
						JOINT LeftForeArm
						{
							OFFSET 33.000046 0.000002 0.000022
							CHANNELS 3 Zrotation Yrotation Xrotation
							JOINT LeftHand
							{
								OFFSET 25.200014 0.000006 0.000015
								CHANNELS 3 Zrotation Yrotation Xrotation
								End Site
								{
									OFFSET 0.000000 0.000000 0.000000
								}
							}
						}
					}
				}
				JOINT RightShoulder
				{
					OFFSET 19.746101 -1.480377 -6.000068
					CHANNELS 3 Zrotation Yrotation Xrotation
					JOINT RightArm
					{
						OFFSET 11.284134 -0.000035 -0.000008
						CHANNELS 3 Zrotation Yrotation Xrotation
						JOINT RightForeArm
						{
							OFFSET 33.000092 0.000019 0.000006
							CHANNELS 3 Zrotation Yrotation Xrotation
							JOINT RightHand
							{
								OFFSET 25.199776 0.000139 0.000431
								CHANNELS 3 Zrotation Yrotation Xrotation
								End Site
								{
									OFFSET 0.000000 0.000000 0.000000
								}
							}
						}
					}
				}
			}
		}
	}
}
MOTION
Frames: 14
Frame Time: 0.033333
193.614899 90.217430 358.243408 90.722131 -0.039963 80.816198 169.431517 -5.014797 164.945489 -27.803199 2.340041 -4.403901 85.426494 1.808336 -5.918605 21.454553 0.003091 -0.000001 168.454472 6.402213 -169.194823 -26.288845 -3.439201 5.713617 86.845418 -2.093280 9.998384 21.454558 -0.003110 -0.000016 5.900498 -0.271742 0.206435 1.791926 -0.546553 0.413224 1.473818 -0.543959 0.416338 1.096672 2.926105 -8.280992 -26.220150 0.119890 -8.059909 -46.185941 -85.291058 -135.985952 -5.766184 3.110243 2.637490 -28.714289 -23.628358 1.748604 16.101476 -14.074858 -18.778741 65.077448 85.200408 -113.537408 0.500269 -7.110152 18.679582 -35.306641 15.016453 -1.370320 2.343926 11.519194 -11.883262 
193.622101 90.232063 358.219391 90.691668 -0.086480 80.761994 169.396642 -5.052796 164.886463 -27.774517 2.353093 -4.403903 85.401762 1.808335 -5.915722 21.454551 0.003090 -0.000001 168.443202 6.355893 -169.140373 -26.167109 -3.457775 5.659227 86.772793 -2.053917 9.972613 21.454560 -0.003114 -0.000018 5.900512 -0.268637 0.206441 1.791914 -0.540408 0.413223 1.473833 -0.537777 0.416329 0.969123 2.796159 -8.299893 -26.231396 0.177313 -8.128458 -45.983784 -85.301345 -136.186459 -5.693335 3.017910 2.682907 -28.650967 -23.563504 1.748583 15.961623 -14.181992 -18.797968 65.448683 85.117975 -113.174131 0.567610 -7.110154 18.600420 -35.221339 14.996799 -1.367081 2.358585 11.511749 -11.787184 
193.640396 90.268059 358.167297 90.608811 -0.200569 80.649241 169.317903 -5.147205 164.802260 -27.696841 2.366484 -4.415189 85.354244 1.815451 -5.907120 21.454555 0.003103 0.000001 168.433407 6.232199 -169.102274 -25.858630 -3.462454 5.589711 86.591492 -2.000799 9.918606 21.454558 -0.003114 -0.000018 5.900504 -0.256251 0.206437 1.791923 -0.515635 0.413224 1.473823 -0.512984 0.416335 0.710314 2.383463 -8.299962 -26.237998 0.434558 -8.325222 -45.619370 -85.339478 -136.546219 -5.531908 2.891854 2.729630 -28.562519 -23.556325 1.748597 16.070277 -14.167480 -18.705503 65.767420 85.094513 -112.859013 0.486382 -7.109310 18.750869 -35.064962 14.923021 -1.358694 2.374591 11.400060 -11.883140 
193.657303 90.314194 358.120087 90.546677 -0.308917 80.559479 169.287127 -5.203993 164.821494 -27.525073 2.337678 -4.472976 85.263765 1.854228 -5.896025 21.454550 0.003106 0.000001 168.454649 6.122804 -169.169579 -25.513431 -3.425232 5.589251 86.394127 -1.993914 9.873503 21.454560 -0.003113 -0.000018 5.900501 -0.247210 0.206438 1.787288 -0.497514 0.409177 1.469192 -0.494901 0.412176 0.501290 2.299887 -8.261712 -26.338606 0.420265 -8.290627 -45.739420 -85.347599 -136.425652 -5.437185 2.877175 2.635594 -28.606779 -23.676825 1.757179 16.121531 -14.253993 -18.583288 65.889004 85.149783 -112.734349 0.320257 -7.155448 18.952860 -34.988283 14.919664 -1.356723 2.381432 11.372279 -11.892400 
193.666702 90.366432 358.075104 90.503415 -0.413718 80.488821 169.293192 -5.235321 164.861205 -27.275722 2.300440 -4.533669 85.136689 1.893881 -5.883422 21.454551 0.003093 0.000000 168.489880 6.020790 -169.276185 -25.153906 -3.382493 5.622251 86.192623 -2.009026 9.836027 21.454558 -0.003116 -0.000019 5.896198 -0.240877 0.202098 1.778703 -0.484769 0.400598 1.460595 -0.482211 0.403521 0.433386 2.424269 -8.226498 -26.624083 0.220028 -8.136036 -46.398360 -85.308482 -135.772467 -5.428010 2.926866 2.514352 -28.789404 -23.845905 1.771566 16.129097 -14.369111 -18.552160 65.754361 85.305723 -112.857784 0.103943 -7.230857 19.104345 -35.053654 14.974929 -1.361791 2.313400 11.458988 -11.769287 
193.668900 90.419167 358.032990 90.475056 -0.515796 80.442225 169.313860 -5.242209 164.904003 -26.988871 2.280169 -4.586905 84.991671 1.925858 -5.877954 21.454553 0.003090 -0.000001 168.526681 5.926611 -169.379170 -24.806439 -3.351415 5.668267 86.001152 -2.032129 9.808593 21.454560 -0.003118 -0.000019 5.888757 -0.237028 0.195014 1.763889 -0.476941 0.386536 1.445785 -0.474455 0.389401 0.499139 2.598158 -8.229283 -26.999874 0.049785 -8.029206 -47.060806 -85.253274 -135.117056 -5.439467 3.020882 2.350280 -29.069777 -24.029975 1.788904 16.091750 -14.465688 -18.382833 65.436122 85.561295 -113.157233 -0.161946 -7.310475 19.213107 -35.223613 15.039416 -1.369894 2.232147 11.480192 -11.757048 
193.665604 90.469353 357.993896 90.459087 -0.615251 80.419651 169.338203 -5.230190 164.963385 -26.689184 2.269264 -4.638730 84.840546 1.955198 -5.878423 21.454557 0.003087 0.000000 168.558113 5.843792 -169.454070 -24.486042 -3.335893 5.712938 85.827795 -2.053961 9.789781 21.454558 -0.003106 -0.000017 5.877744 -0.234016 0.184493 1.741899 -0.470731 0.365583 1.423792 -0.468387 0.368422 0.673542 2.795344 -8.277369 -27.424704 -0.077119 -7.988877 -47.223740 -85.228043 -134.956847 -5.405492 3.119594 2.287371 -29.317235 -24.214894 1.805723 15.954011 -14.550943 -18.188811 65.265729 85.802640 -113.310728 -0.370858 -7.390782 19.250622 -35.408179 15.106401 -1.378499 2.225307 11.558658 -11.686464 
193.659103 90.517220 357.959106 90.450023 -0.714525 80.417718 169.359882 -5.204402 165.039350 -26.388545 2.269191 -4.690636 84.689380 1.983059 -5.885346 21.454553 0.003104 0.000003 168.588425 5.775103 -169.470695 -24.181433 -3.332164 5.736010 85.669833 -2.061729 9.771025 21.454558 -0.003105 -0.000018 5.863061 -0.227642 0.168629 1.712633 -0.457680 0.334027 1.394527 -0.455515 0.336785 0.956323 2.916393 -8.385126 -27.905045 -0.141822 -8.062062 -47.134910 -85.239921 -135.044383 -5.326953 3.210734 2.282278 -29.522130 -24.355150 1.818864 15.789666 -14.624461 -18.063520 65.186649 86.005018 -113.376059 -0.543499 -7.474939 19.374697 -35.571232 15.148651 -1.385047 2.272833 11.646979 -11.687307 
193.650803 90.567101 357.929688 90.442647 -0.812085 80.434589 169.390918 -5.170910 165.099360 -26.069529 2.285289 -4.724760 84.530544 1.998192 -5.891931 21.454550 0.003083 -0.000001 168.636633 5.716996 -169.436434 -23.859907 -3.335033 5.739613 85.510772 -2.056713 9.747524 21.454560 -0.003107 -0.000017 5.845536 -0.217614 0.149044 1.677655 -0.437334 0.295038 1.359551 -0.435407 0.297669 1.283595 2.983574 -8.571501 -28.388655 -0.184100 -8.242304 -47.258038 -85.247495 -134.920879 -5.300938 3.313626 2.247471 -29.683353 -24.468133 1.829405 15.623301 -14.640690 -17.939888 64.811986 86.244225 -113.732847 -0.799749 -7.556679 19.684463 -35.661732 15.132851 -1.386144 2.344225 11.642419 -11.834197 
193.641602 90.623459 357.906708 90.436930 -0.909158 80.466172 169.445942 -5.128598 165.157089 -25.703653 2.304346 -4.750277 84.349551 2.007191 -5.894800 21.454553 0.003087 0.000001 168.714811 5.657112 -169.386192 -23.491889 -3.338663 5.744192 85.332804 -2.049881 9.729109 21.454557 -0.003106 -0.000017 5.825320 -0.205805 0.129264 1.637331 -0.413386 0.255735 1.319242 -0.411686 0.258221 1.555599 2.985302 -8.887662 -28.749479 -0.229127 -8.568003 -47.435869 -85.257522 -134.742502 -5.313849 3.427770 2.144694 -29.852725 -24.550043 1.838139 15.461091 -14.538444 -17.761832 63.909301 86.583556 -114.609222 -1.197607 -7.554057 19.937887 -35.588018 15.057159 -1.379518 2.478411 11.562689 -11.750075 
193.629807 90.684563 357.892487 90.432039 -1.013620 80.509414 169.512823 -5.082300 165.237890 -25.305779 2.316107 -4.781570 84.153798 2.019732 -5.898008 21.454551 0.003087 -0.000002 168.811295 5.575104 -169.406655 -23.086268 -3.337900 5.800646 85.136478 -2.072736 9.736750 21.454557 -0.003103 -0.000017 5.796815 -0.190622 0.106854 1.580463 -0.382675 0.211235 1.262353 -0.381247 0.213528 1.871550 2.888679 -9.318601 -29.061557 -0.220891 -9.062918 -47.654981 -85.273081 -134.522488 -5.337640 3.559692 2.004519 -30.043185 -24.599288 1.845239 15.310791 -14.433571 -17.502368 62.471512 86.985068 -116.015312 -1.731866 -7.527390 20.276293 -35.409879 14.981665 -1.370467 2.551650 11.435771 -11.722307 
193.610596 90.744469 357.882690 90.426691 -1.127353 80.549391 169.573790 -5.048712 165.321314 -24.913084 2.317500 -4.812488 83.959759 2.031889 -5.903000 21.454553 0.003100 -0.000001 168.899486 5.477701 -169.529626 -22.687525 -3.324978 5.914230 84.941858 -2.133425 9.758170 21.454560 -0.003111 -0.000017 5.759916 -0.170961 0.083809 1.506743 -0.343012 0.165478 1.188637 -0.341870 0.167553 2.260373 2.619469 -9.800362 -29.299725 -0.052414 -9.728491 -48.230551 -85.287691 -133.947086 -5.376532 3.690459 1.870373 -30.257598 -24.685103 1.855212 15.130604 -14.335949 -17.047910 60.570835 87.389176 -117.883560 -2.288274 -7.510127 20.539154 -35.247481 15.005989 -1.368277 2.549004 11.288309 -11.723718 
193.589096 90.784401 357.878998 90.465316 -1.228650 80.591772 169.615522 -4.976396 165.404396 -24.579792 2.323653 -4.844385 83.794120 2.043804 -5.916440 21.454551 0.003102 0.000001 168.908433 5.459701 -169.405903 -22.462501 -3.380896 5.880103 84.845259 -2.098070 9.775429 21.454558 -0.003109 -0.000018 5.722861 -0.156567 0.059197 1.432712 -0.313875 0.116555 1.114618 -0.313020 0.118443 2.626193 2.241301 -10.319491 -29.403537 0.159419 -10.473587 -48.914611 -85.300764 -133.263425 -5.379848 3.843620 1.716590 -30.563061 -24.825854 1.870697 14.989784 -14.300440 -16.567964 58.194646 87.717155 -120.232571 -2.659026 -7.524599 20.719688 -35.271305 15.043869 -1.371279 2.648707 11.211437 -11.604139 
193.561401 90.801170 357.886810 90.538105 -1.288579 80.635533 169.664317 -4.881315 165.519212 -24.327421 2.309104 -4.891834 83.670186 2.066810 -5.937439 21.454553 0.003095 -0.000000 168.865772 5.520006 -169.287796 -22.439992 -3.398925 5.833852 84.857724 -2.062611 9.797488 21.454557 -0.003107 -0.000017 5.698122 -0.152012 0.036527 1.383308 -0.304479 0.071343 1.065215 -0.303886 0.073173 2.938966 1.995869 -10.852093 -29.445219 0.206733 -11.120948 -49.118455 -85.302096 -133.059926 -5.290703 4.021278 1.627832 -30.990631 -25.069185 1.895520 14.872129 -14.343397 -16.192377 54.642992 88.049867 -123.755255 -2.955680 -7.608579 21.063159 -35.445618 15.070495 -1.377052 2.626555 11.228013 -11.563355 
